<?xml version="1.0" encoding="UTF-8"?>
<!DOCTYPE svg PUBLIC "-//W3C//DTD SVG 1.1//EN" "http://www.w3.org/Graphics/SVG/1.1/DTD/svg11.dtd">
<!-- Creator: CorelDRAW 2020 (64-Bit) -->
<svg xmlns="http://www.w3.org/2000/svg" xml:space="preserve" width="104.76mm" height="32.8381mm" version="1.1" style="shape-rendering:geometricPrecision; text-rendering:geometricPrecision; image-rendering:optimizeQuality; fill-rule:evenodd; clip-rule:evenodd"
viewBox="0 0 10323.47 3235.98"
 xmlns:xlink="http://www.w3.org/1999/xlink"
 xmlns:xodm="http://www.corel.com/coreldraw/odm/2003">
 <defs>
  <style type="text/css">
   <![CDATA[
    .fil0 {fill:#0BABE4;fill-rule:nonzero}
    .fil1 {fill:#254287;fill-rule:nonzero}
    .fil2 {fill:#244082;fill-rule:nonzero}
   ]]>
  </style>
 </defs>
 <g id="__x0023_Layer_x0020_1">
  <metadata id="CorelCorpID_0Corel-Layer"/>
  <g id="_2221500290288">
   <path class="fil0" d="M3040.61 864.82l173.29 117.21 -546.59 808.18c84.28,66.72 130.15,169.8 137.52,276.31l631.65 -933.95 173.3 117.21 33.94 -663.44 -603.11 278.49z"/>
   <g>
    <path class="fil1" d="M274.5 2866.16l50.96 0 0 244.38 107.69 0 0 -244.38 50.96 0 0 287.24 -209.6 0 0 -287.24zm193.27 287.24l0 0 -14.4 0 0 -42.87 64.3 0 0 31.27 -4.75 94.18 -45.15 0 0 -82.58z"/>
    <path class="fil1" d="M801.73 2866.16l50.44 0 0 124.73c0,31.98 -4.04,68.34 -6.51,98.04l1.76 0 29.67 -60.97 90.31 -161.8 53.94 0 0 287.24 -50.41 0 0 -125.8c0,-31.97 4.04,-66.58 6.48,-96.98l-1.72 0 -29.71 60.7 -90.31 162.07 -53.94 0 0 -287.24z"/>
    <path class="fil1" d="M1319.56 3008.64c0,-72.21 50.79,-108.59 133.53,-108.59l21.41 0c82.78,0 133.53,36.37 133.53,108.59 0,72.19 -50.75,110.32 -133.53,110.32l-21.41 0c-82.74,0 -133.53,-38.13 -133.53,-110.32zm158.65 72.19l0 0c51.47,0 81.68,-25.13 81.68,-72.19 0,-47.09 -30.21,-70.47 -81.68,-70.47l-28.82 0c-51.47,0 -81.68,23.37 -81.68,70.47 0,47.06 30.21,72.19 81.68,72.19l28.82 0zm-36.53 -219.96l0 0 44.27 0 0 297.8 -44.27 0 0 -297.8z"/>
    <path class="fil1" d="M1906.37 2866.16l90.51 0c63.76,0 111.02,22.13 111.02,88.53 0,64.05 -47.43,93.12 -109.28,93.12l-41.28 0 0 105.59 -50.97 0 0 -287.24zm88.04 140.89l0 0c42.88,0 63.25,-17.03 63.25,-52.36 0,-35.66 -22.31,-47.77 -65.02,-47.77l-35.3 0 0 100.13 37.07 0z"/>
    <path class="fil1" d="M2388.66 3008.64c0,-92.96 51.83,-147.77 126.7,-147.77 74.82,0 126.66,55.09 126.66,147.77 0,92.94 -51.83,150.03 -126.66,150.03 -74.86,0 -126.7,-57.1 -126.7,-150.03zm201.01 0l0 0c0,-64.49 -29.16,-103.5 -74.31,-103.5 -45.15,0 -74.32,39.01 -74.32,103.5 0,64.47 29.17,105.75 74.32,105.75 45.15,0 74.31,-41.28 74.31,-105.75z"/>
    <path class="fil1" d="M2941.55 2866.16l91.9 0c59.04,0 102.43,18.09 102.43,70.79 0,27.06 -14.77,53.41 -39.89,62.2l0 1.74c31.81,7.21 55.16,29.36 55.16,68.17 0,57.44 -47.08,84.33 -110.33,84.33l-99.27 0 0 -287.24zm87.32 118.58l0 0c40.06,0 57.11,-15.63 57.11,-40.58 0,-27.76 -18.77,-38.29 -56.05,-38.29l-37.42 0 0 78.87 36.36 0zm6.69 128.96l0 0c42.17,0 65.69,-15.11 65.69,-47.45 0,-30.21 -22.81,-43.39 -65.69,-43.39l-43.05 0 0 90.84 43.05 0z"/>
    <path class="fil1" d="M3430.38 3008.64c0,-92.96 51.84,-147.77 126.7,-147.77 74.82,0 126.67,55.09 126.67,147.77 0,92.94 -51.84,150.03 -126.67,150.03 -74.85,0 -126.7,-57.1 -126.7,-150.03zm201.02 0l0 0c0,-64.49 -29.2,-103.5 -74.32,-103.5 -45.15,0 -74.31,39.01 -74.31,103.5 0,64.47 29.16,105.75 74.31,105.75 45.12,0 74.32,-41.28 74.32,-105.75z"/>
    <path class="fil1" d="M3983.32 2866.16l50.44 0 0 124.73c0,31.98 -4.04,68.34 -6.51,98.04l1.76 0 29.67 -60.97 90.31 -161.8 53.94 0 0 287.24 -50.41 0 0 -125.8c0,-31.97 4.04,-66.58 6.48,-96.98l-1.73 0 -29.7 60.7 -90.31 162.07 -53.94 0 0 -287.24zm39.17 -82.4l0 0 43.22 0c0.88,18.88 9.16,32.68 29.2,32.68 19.99,0 28.27,-13.8 29.16,-32.68l43.22 0c-1.94,32.15 -19.87,59.03 -72.38,59.03 -52.55,0 -70.48,-26.87 -72.42,-59.03z"/>
    <path class="fil1" d="M4842.58 3153.57l9.64 -44.63c4.93,1.76 9.94,3.17 20.03,3.17 15.55,0 25.66,-5.45 32.14,-18.17l5.3 -11.79 -97.71 -216 53.94 0 43.39 105.49 22.84 62.72 1.76 0 21.59 -62.72 39.72 -105.49 51.3 0 -91.36 228.47c-16.06,39.7 -39.45,64.04 -80.12,64.04 -14.67,0 -24.24,-1.93 -32.49,-5.1z"/>
    <path class="fil1" d="M5462.49 3031.11c-13.34,2.13 -26.85,3.71 -47.6,3.71 -66.41,0 -106.63,-26.17 -106.63,-99.44l0 -69.22 49.9 0 0 69.22c0,43.74 20.71,58.33 61.83,58.33 18.98,0 32.14,-1.58 42.5,-3.69l0 -123.86 50.96 0 0 287.24 -50.96 0 0 -122.29z"/>
    <path class="fil1" d="M5828.29 2866.16l172.9 0 0 42.86 -121.95 0 0 73.62 103.3 0 0 42.86 -103.3 0 0 85.04 126.32 0 0 42.87 -177.28 0 0 -287.24zm16.19 -49.73l0 0c0,-15.11 10.87,-26.17 26.17,-26.17 15.28,0 26.18,11.07 26.18,26.17 0,15.11 -10.9,26.17 -26.18,26.17 -15.3,0 -26.17,-11.07 -26.17,-26.17zm93.8 0l0 0c0,-15.11 10.9,-26.17 26.17,-26.17 15.28,0 26.17,11.07 26.17,26.17 0,15.11 -10.89,26.17 -26.17,26.17 -15.27,0 -26.17,-11.07 -26.17,-26.17z"/>
    <polygon class="fil1" points="6364.35,2909.02 6281.44,2909.02 6281.44,2866.16 6498.21,2866.16 6498.21,2909.02 6415.31,2909.02 6415.31,3153.4 6364.35,3153.4 "/>
    <polygon class="fil1" points="7117.41,2866.16 7290.99,2866.16 7290.99,2909.02 7168.37,2909.02 7168.37,3153.4 7117.41,3153.4 "/>
    <path class="fil1" d="M7613.07 2866.16l59.75 0 93.63 287.24 -53.94 0 -43.72 -152.86c-9.13,-30.38 -17.59,-63.15 -26.01,-94.68l-1.76 0c-7.91,31.79 -16.33,64.3 -25.46,94.68l-44.1 152.86 -52.01 0 93.64 -287.24zm-38.3 169.44l0 0 135.29 0 0 39.98 -135.29 0 0 -39.98z"/>
    <path class="fil1" d="M8024.02 3117.91l27.57 -34.95c23.56,22.48 46.92,31.44 76.42,31.44 33.41,0 58.87,-16.85 58.87,-47.43 0,-30.4 -22.48,-44.1 -64.64,-44.1l-35.51 0 0 -38.13 26.72 0c42.33,0 59.2,-14.66 59.2,-40.84 0,-26.36 -20.37,-38.76 -48.31,-38.76 -24.62,0 -44.82,9.15 -63.08,24.43l-26.17 -33.9c23.01,-21.62 55.67,-34.8 90.81,-34.8 60.09,0 96.65,28.47 96.65,75.37 0,28.99 -13.88,53.07 -39.61,63.43l0 1.75c30.82,7.21 53.84,32.14 53.84,68.86 0,57.18 -47.64,88.38 -108.23,88.38 -39.52,0 -74.86,-11.78 -104.54,-40.77z"/>
    <path class="fil1" d="M8587.18 2866.16l59.75 0 93.64 287.24 -53.95 0 -43.72 -152.86c-9.13,-30.38 -17.58,-63.15 -26.01,-94.68l-1.76 0c-7.91,31.79 -16.33,64.3 -25.46,94.68l-44.1 152.86 -52.01 0 93.64 -287.24zm-38.29 169.44l0 0 135.28 0 0 39.98 -135.28 0 0 -39.98z"/>
   </g>
   <path class="fil0" d="M1683.08 1042.93c228.1,-446.95 692.48,-753.22 1228.7,-753.22 536.22,0 1000.6,306.26 1228.69,753.22l318.22 0c-247.59,-611.43 -846.69,-1042.93 -1546.91,-1042.93 -700.23,0 -1299.33,431.49 -1546.92,1042.93l318.22 0z"/>
   <polygon class="fil2" points="851.89,1048.7 -0,1048.7 -0,1324.38 283.95,1324.38 283.95,2582.52 567.91,2582.52 567.91,1324.38 851.89,1324.38 "/>
   <path class="fil2" d="M1461.18 1396.95c-414.51,0 -611.42,356.49 -611.42,619.73 0,263.22 194.82,603.16 607.3,603.16 53.9,0 404.18,-4.15 557.53,-368.95l-310.91 0c-68.38,82.9 -167.87,107.8 -256.99,107.8 -147.17,0 -265.31,-87.06 -300.53,-228.02l899.53 0c6.22,-41.44 6.22,-80.82 6.22,-122.29 0,-342 -240.42,-611.42 -590.73,-611.42zm-319.21 489.14l0 0c45.63,-136.81 167.92,-227.99 319.21,-227.99 140.97,0 263.25,82.9 302.62,227.99l-621.83 0z"/>
   <polygon class="fil2" points="4207.25,1857.08 3780.28,1857.08 3780.28,1434.23 3504.6,1434.23 3504.6,2582.52 3780.28,2582.52 3780.28,2101.66 4207.25,2101.66 4207.25,2582.52 4482.92,2582.52 4482.92,1434.23 4207.25,1434.23 "/>
   <path class="fil2" d="M5294.32 1396.95c-352.37,0 -609.37,277.74 -609.37,613.48 0,333.73 259.09,609.4 609.37,609.4 350.26,0 609.36,-275.68 609.36,-609.4 0,-335.75 -257,-613.48 -609.36,-613.48zm0 961.74l0 0c-203.14,0 -333.7,-161.7 -333.7,-348.25 0,-186.51 128.49,-352.33 333.7,-352.33 205.19,0 333.69,165.82 333.69,352.33 0,186.55 -130.56,348.25 -333.69,348.25z"/>
   <polygon class="fil2" points="6802.11,2250.89 6505.74,1434.23 6105.68,1434.23 6105.68,2582.52 6381.36,2582.52 6381.36,1738.95 6688.13,2582.52 6916.13,2582.52 7222.87,1738.95 7222.87,2582.52 7498.55,2582.52 7498.55,1434.23 7098.53,1434.23 "/>
   <path class="fil2" d="M8320.28 1396.95c-414.54,0 -611.46,356.49 -611.46,619.73 0,263.22 194.86,603.16 607.31,603.16 53.89,0 404.17,-4.15 557.56,-368.95l-310.9 0c-68.43,82.9 -167.92,107.8 -257.04,107.8 -147.14,0 -265.3,-87.06 -300.53,-228.02l899.57 0c6.21,-41.44 6.21,-80.82 6.21,-122.29 0,-342 -240.46,-611.42 -590.73,-611.42zm-319.2 489.14l0 0c45.59,-136.81 167.91,-227.99 319.2,-227.99 140.93,0 263.21,82.9 302.63,227.99l-621.83 0z"/>
   <path class="fil2" d="M9747.26 1396.95c-89.15,0 -271.55,26.91 -368.95,186.51l-4.15 0 0 -149.23 -252.88 0 0 1702.55 275.68 0 0 -678.6 4.15 0c107.77,136.77 252.88,161.66 346.15,161.66 364.81,0 576.21,-296.41 576.21,-611.46 0,-371.01 -263.25,-611.42 -576.21,-611.42zm-39.41 961.74l0 0c-186.51,0 -327.48,-130.59 -327.48,-350.31 0,-201.04 136.81,-350.27 337.85,-350.27 232.15,0 329.58,194.83 329.58,348.21 0,203.1 -143.03,352.37 -339.95,352.37z"/>
   <polygon class="fil0" points="2705.81,1733.28 2121,2585.08 2445.41,2585.08 2867.34,1974.09 "/>
   <polygon class="fil2" points="2162.41,1434.23 2530.06,1980.28 2691.89,2220.65 2935.53,2582.52 3275.44,2582.52 2505.22,1434.23 "/>
  </g>
 </g>
</svg>
